<svg xmlns="http://www.w3.org/2000/svg" viewBox="0 0 459.4 459.4"><path d="M202.4 320.1l8 24.3L200 433c-1.5 13 7.8 24.8 20.8 26.3s24.8-7.8 26.3-20.8l9.2-78.9-16.8-22-37.1-17.5zM340.2 360l-37.7 28.8c8.6 10.9 23.3 12 33.3 4.5 10.3-8 12.3-22.9 4.4-33.3z"/><path d="M277.2 281.9l-85.9-42.2 1.7 11.6c2.2 15.1-4.5 29.3-16.2 37.5 0 16.2-11.7 24.8-23.2 24.8-12.8 0-23.2-10.4-23.2-23.2v-3.1c-14.6-11.7-14.3-26.2-17.2-45.4-1.6 1.7-2.5 4-2.5 6.6v41.9c0 20.3 14.1 37.3 33 41.7v117.6c0 5.4 4.4 9.9 9.9 9.9 5.4 0 9.9-4.4 9.9-9.9V332c10.7-2.5 19.9-9.1 25.8-18 3.5-5.2 5.9-11.3 6.8-17.8l55.2 25.9 37.9-28.9c-3.5-4.6-5.9-8.5-12-11.3z"/><circle cx="234.5" cy="41" r="41"/><path d="M334.3 210.5l-57-16.3-14.6-33.9 6.2-29.4c3.1-15-6.4-29.6-21.4-32.8L199.2 88c-15-3.1-29.6 6.4-32.8 21.4l-2.9 13.8 27.9-14.7-61.6 54c-4.9 4.4-7.3 11-6.3 17.6l11.7 79.7c1.6 10.8 11.6 18.3 22.4 16.7 10.8-1.6 18.3-11.7 16.7-22.4l-10-67.7 55.9-50.3c-3.9 6-32.7 49.6-36 54.7l6.7 45.6 53.3 12 5-23.6c2.3 2.2 5.1 3.9 8.3 4.8l66 18.9c10.5 3 21.4-3.1 24.4-13.6s-3.1-21.4-13.6-24.4z"/></svg>