<svg xmlns="http://www.w3.org/2000/svg" width="512" height="512" viewBox="0 0 64 64">
  <path d="M1 61h62v2H1zM25.3 8a25.1 25.1 0 0123.1 5.2L46 15.5l11.4 2.9L54.5 7l-1.8 2a30.8 30.8 0 00-29-6.9l-.7.2V8h2zM25 3.8A29.1 29.1 0 0152 11l.7.7.8-.7 1.1 4.6-4.6-1.1 1.3-1.4-.7-.7A26.9 26.9 0 0025 5.9zM2.1 40.3l.2.7H8v-2.3a25.1 25.1 0 015.2-23.1l2.3 2.4 2.9-11.4L7 9.5l2 1.8a30.8 30.8 0 00-6.9 29zm9-28.3l.6-.7-.7-.8 4.6-1.1-1.1 4.6-1.4-1.3-.7.7A26.9 26.9 0 005.9 39H4A29.1 29.1 0 0111 12zM56 22v.3a25.1 25.1 0 01-5.2 23.1L48.5 43l-2.9 11.4L57 51.5l-2-1.8a30.8 30.8 0 006.9-29l-.2-.7H56zm4.1 0A29.1 29.1 0 0153 49l-.7.7.7.8-4.6 1.1 1.1-4.6 1.4 1.3.7-.7A26.9 26.9 0 0058.1 22zM22 39h2v2h-2zM14 39h2v2h-2zM18 39h2v2h-2zM18 43h2v2h-2zM14 43h2v2h-2zM22 43h2v2h-2zM18 47h2v2h-2zM22 47h2v2h-2zM14 47h2v2h-2zM14 51h2v2h-2zM22 51h2v2h-2zM18 51h2v2h-2zM16 31h2v2h-2zM24 31h2v2h-2zM20 31h2v2h-2zM28 31h2v2h-2zM24 27h2v2h-2zM28 27h2v2h-2zM20 27h2v2h-2zM16 27h2v2h-2zM16 23h2v2h-2zM24 23h2v2h-2zM20 23h2v2h-2zM28 23h2v2h-2z"/>
  <path d="M44 43h3a7 7 0 007-7v-1h-5a7 7 0 00-5 2.1V33h3a7 7 0 007-7v-1h-5a7 7 0 00-5 2.2 7 7 0 00-7-6.2h-3v-2H12v16h-2v20H1v2h62v-2H44zm5-6h2.9a5 5 0 01-4.9 4h-2.9a5 5 0 014.9-4zm0-10h2.9a5 5 0 01-4.9 4h-2.9a5 5 0 014.9-4zm-7 28h-8V36.9a7 7 0 005 2.1h3v4zm-7.9-22H37a5 5 0 014.9 4H39a5 5 0 01-4.9-4zM37 23a5 5 0 014.9 4H39a5 5 0 01-4.9-4zm2 6h3v4.1a7 7 0 00-5-2.1h-3v-4.1a7 7 0 005 2.1zm-25-8h18v34h-4V35H14zm-2 16h14v18H12z"/>
</svg>
