<svg xmlns="http://www.w3.org/2000/svg" viewBox="0 0 511 511">
  <path d="M359.1 251.4a204.5 204.5 0 0037.2-118V38.7c0-4.7-3.2-8.7-7.8-9.7L259.7.2c-1.4-.3-2.9-.3-4.3 0L126.5 29a10 10 0 00-7.8 9.7v94.7c0 42.5 12.9 83.3 37.2 118a204.6 204.6 0 0098.2 75.3 10.2 10.2 0 006.8 0 204.2 204.2 0 0098.2-75.3zm-101.6 55.3a185 185 0 01-118.9-173.3V46.7l118.9-26.5 118.9 26.5v86.7a185 185 0 01-118.9 173.3z"/>
  <path d="M359.4 68.3c0-4.7-3.2-8.7-7.8-9.7l-91.9-20.5c-1.4-.3-2.9-.3-4.3 0l-91.9 20.5a10 10 0 104.3 19.5l89.8-20 82 18.3v57a148.4 148.4 0 01-81.9 133 148.5 148.5 0 01-81.5-121.1l-.4-6.6a10 10 0 10-19.9.7l.4 7.5a168.5 168.5 0 0097.2 139.7 10.2 10.2 0 008.4 0 168.3 168.3 0 0097.7-153.1l-.2-65.2z"/>
  <path d="M229.1 185.2a10 10 0 007 3.5h.7c2.5 0 4.9-.9 6.7-2.6l72.4-65.5a10 10 0 10-13.4-14.8l-64.7 58.5-18.5-21.8a10 10 0 00-14.1-1.2 10 10 0 00-1.2 14.1l25.1 29.8zM173.5 330.3a32 32 0 00-53.1 3.2l-2.9-3.8c-2.6-3.4-4-7.6-4-11.9v-90a33.5 33.5 0 00-66.6-3.2L36.1 337.3a39.1 39.1 0 007.9 27.6l84.8 110.5V501a10 10 0 0010 10 10 10 0 0010-10v-29c0-2.2-.7-4.3-2.1-6.1L59.8 352.8c-3-3.9-4.3-8.7-3.9-13.6l10.7-112.7a13.4 13.4 0 0126.7 1.3v90c0 8.6 2.9 17.2 8.2 24l20.9 27.2.1.1 16.9 22c3.4 4.4 9.6 5.2 14 1.8s5.2-9.6 1.8-14l-16.9-22c-3.9-5.2-3-12.7 2.1-16.7a12.1 12.1 0 0117.1 2.2l40.3 53a60.8 60.8 0 0112.3 36.5V501a10 10 0 0010 10 10 10 0 0010-10v-69.2c0-17.4-5.8-34.7-16.4-48.6l-40.2-52.9zM476.1 337.3l-10.7-112.7a33.5 33.5 0 00-66.6 3.2v90c0 4.3-1.4 8.5-4 11.9l-2.9 3.8a31.7 31.7 0 00-31.6-15.6 31.8 31.8 0 00-21.5 12.4l-40.3 53a80.4 80.4 0 00-16.4 48.6V501a10 10 0 0010 10 10 10 0 0010-10v-69.2a61 61 0 0112.3-36.5l40.3-53a12.1 12.1 0 0117.1-2.2c5.1 4.1 6 11.5 2.1 16.7L357 379c-3.4 4.4-2.5 10.6 1.8 14s10.6 2.5 14-1.8l16.9-22 .1-.1 20.9-27.2a39.6 39.6 0 008.2-24v-90a13.4 13.4 0 0126.7-1.3l10.7 112.7c.5 4.9-.9 9.7-3.8 13.6L365.6 466a10.2 10.2 0 00-2.1 6.1v29c0 5.5 4.5 10 10 10s10-4.5 10-10v-25.6L468.4 365c5.8-8 8.6-17.8 7.7-27.7zM160 111.9a10 10 0 0011.6-.4c3.1-2.4 4.6-6.7 3.6-10.5a10.2 10.2 0 00-9.1-7.4c-4.2-.2-8.2 2.4-9.8 6.3-1.7 4.3-.1 9.4 3.7 12z"/>
</svg>
