<svg xmlns="http://www.w3.org/2000/svg" viewBox="0 0 478.2 478.2">
  <path d="M200.7 214.8l7 48.9c2.6-.9 10.5-3.7 21.2-6.8a207.3 207.3 0 01-34.3-106.6c-11.8 21-40.1 63.7-75.3 65a21.2 21.2 0 00-1.7 42.2c1.1.1 2.2.2 3.3.1 27.9-.9 55.3-15.7 79.8-42.8zM269 172c-26.7-1.7-53.4 10.6-59.8 13.9 2.1 9.4 5.1 19.6 9.3 30 9.2-4.4 31.9-13.8 56.1-13.5A209.9 209.9 0 01269 172z"/>
  <path d="M153.6 88.9c1 .2 2 .2 3 0l14.7-2.8a54 54 0 0036.9 41.8c-1 1.4-2.6 3.6-4.1 6a197 197 0 003.7 44.4 134 134 0 0160.6-13.9c-1.7-21.3-.2-39.3 2.4-47.1l-7.6-3.5a53.8 53.8 0 0013.5-50.7l.2-.5c1.3-2.9-.1-5.5-1.5-8a31.9 31.9 0 01-4-10.5c-4.8-24.9-31.6-40.7-59.8-35.3-28.2 5.4-47.2 30.1-42.4 54.9a491 491 0 001.1 5.5l-16.9 3.2a8.2 8.2 0 00-6.5 9.7 8.3 8.3 0 006.7 6.8zM291.9 244.9a129.9 129.9 0 01-15.4-33.8c-23.6-.9-46.8 8.8-55.5 13a183 183 0 0017.5 31.4c17.8-5 34.2-10 53.4-10.6zM377.7 239.9a234.9 234.9 0 00-81.6-106.8V0h-12.3v124.9l-3.9-2.3c-1.4 17.8-8.5 70.5 23.1 120.3h6.5l-6.7-46.8a208.7 208.7 0 0135.5 59.4 21.3 21.3 0 0027.5 11.8 21 21 0 0011.9-27.4zM247.5 315.1c-8.7-22-39-29.3-44-30.4-29.1 21.3-32.1 28.2-34 32.7-5.5 13.1-11 45.9-3.2 82.6a25 25 0 1049-10.5c-5-23.5-2.1-43-.4-50.2 5.6-4.8 19.1-14.8 32.6-24.2zM311.4 292.5c.2-1.5.4-3.1.4-4.7-7.5.7-37.9 4.8-47.8 26.4 6.1 39.4 16.5 109.1 19.1 140.9a25.1 25.1 0 0025 23l2.1-.1a25.1 25.1 0 0023-27.1c-3.3-38-16.4-123.7-21.8-158.4zM312.7 276.3l-.4-3.7-2.6-18-.9-.1c-2.1-.2-4.4-.3-6.8-.3-36.5 0-90.8 19.5-91.3 19.7l-.8.3.2 1.6c9.5 2.3 35.8 10.6 45.1 32l5.5-3.8c12.3-23.2 44.6-27.1 52-27.7z"/>
</svg>
